<svg xmlns="http://www.w3.org/2000/svg" viewBox="0 0 100 110"><defs><linearGradient id="g" x1="0" y1="0" x2="1" y2="1"><stop offset="0" stop-color="#1670ad"/><stop offset=".55" stop-color="#2e9e4f"/><stop offset="1" stop-color="#f08a24"/></linearGradient></defs><path d="M34 6L50 4L62 6L78 14L84 22L80 30L86 38L98 48L88 56L82 66L76 78L72 92L62 104L52 106L46 98L44 84L38 72L36 60L28 58L16 54L6 44L8 32L18 24L26 14Z" fill="#fff" fill-opacity=".92" stroke="url(#g)" stroke-width="4" stroke-linejoin="round"/><g stroke="url(#g)" stroke-width="2" fill="none" stroke-linecap="round"><path d="M20 34h12l6 8M40 20l8 8h16M30 60l8 10h12M60 84l-6-10M70 56h8l4 8"/></g><g fill="#f08a24"><circle cx="20" cy="34" r="3"/><circle cx="64" cy="28" r="3"/><circle cx="82" cy="64" r="3"/><circle cx="60" cy="84" r="3"/><circle cx="30" cy="60" r="3"/></g><text x="52" y="56" text-anchor="middle" font-family="Arial,sans-serif" font-weight="800" font-size="22" fill="#14305a">&lt;/&gt;</text></svg>
